<svg width="16" height="16" viewBox="0 0 16 16" fill="none" xmlns="http://www.w3.org/2000/svg">
<path opacity="0.8" fill-rule="evenodd" clip-rule="evenodd" d="M11.9576 11.0171L15.8041 14.8637C16.0653 15.1216 16.0653 15.5461 15.8041 15.8041C15.5429 16.0653 15.1216 16.0653 14.8604 15.8041L11.0139 11.9608C9.85143 12.9143 8.36571 13.4857 6.74286 13.4857C3.01714 13.4857 0 10.4653 0 6.74286C0 3.02041 3.01714 0 6.74286 0C10.4653 0 13.4857 3.02041 13.4857 6.74286C13.4857 8.36571 12.911 9.85469 11.9576 11.0171ZM1.33984 6.74393C1.33984 9.72188 3.7627 12.1447 6.74393 12.1447C9.72188 12.1447 12.148 9.72188 12.148 6.74393C12.148 3.76597 9.72188 1.33984 6.74393 1.33984C3.7627 1.33984 1.33984 3.76597 1.33984 6.74393Z" fill="#C2C2C2"/>
</svg>
